<svg height="512" viewBox="0 0 64 64" width="512" xmlns="http://www.w3.org/2000/svg"><g id="Billboards-4" data-name="Billboards"><path d="m61 17v28a4 4 0 0 1 -4 4h-50a4 4 0 0 1 -4-4v-28a4 4 0 0 1 4-4h50a4 4 0 0 1 4 4zm-15 20v-16a3.995 3.995 0 0 0 -4-4l-20 8h-4a4 4 0 1 0 0 8h4l.4.16 2.77 10.34a2.011 2.011 0 0 0 2.45 1.42l1.51-.41a1.987 1.987 0 0 0 1.27-2.81l-2.9-5.89a5.1 5.1 0 0 1 -.3-.73l14.8 5.92a4 4 0 0 0 4-4z" fill="#46f8ff"/><path d="m55 3a2.006 2.006 0 0 1 2 2 2.015 2.015 0 0 1 -2 2h-8a2.006 2.006 0 0 1 -2-2 2.015 2.015 0 0 1 2-2z" fill="#ffcd00"/><path d="m46 21v16a4 4 0 0 1 -4 4v-24a3.995 3.995 0 0 1 4 4z" fill="#b2fa09"/><path d="m42 17v24l-14.8-5.92-4.8-1.92-.4-.16v-8z" fill="#ff7956"/><path d="m36 3a2.006 2.006 0 0 1 2 2 2.015 2.015 0 0 1 -2 2h-8a2.006 2.006 0 0 1 -2-2 2.015 2.015 0 0 1 2-2z" fill="#ffcd00"/><path d="m28 49h8v12h-8z" fill="#ff9811"/><path d="m30.4 41.7a1.987 1.987 0 0 1 -1.27 2.81l-1.51.41a2.011 2.011 0 0 1 -2.45-1.42l-2.77-10.34 4.8 1.92a5.1 5.1 0 0 0 .3.73z" fill="#ff9811"/><path d="m22 25v8h-4a4 4 0 0 1 0-8z" fill="#b2fa09"/><path d="m17 3a2.006 2.006 0 0 1 2 2 2.015 2.015 0 0 1 -2 2h-8a2.006 2.006 0 0 1 -2-2 2.015 2.015 0 0 1 2-2z" fill="#ffcd00"/><path d="m57 50a5.006 5.006 0 0 0 5-5v-28a5.006 5.006 0 0 0 -5-5h-5v-4h3a3 3 0 0 0 0-6h-8a3 3 0 0 0 0 6h3v4h-17v-4h3a3 3 0 0 0 0-6h-8a3 3 0 0 0 0 6h3v4h-17v-4h3a3 3 0 0 0 0-6h-8a3 3 0 0 0 0 6h3v4h-5a5.006 5.006 0 0 0 -5 5v28a5.006 5.006 0 0 0 5 5h20v10h-25v2h60v-2h-25v-10zm-11-45a1 1 0 0 1 1-1h8a1 1 0 0 1 0 2h-8a1 1 0 0 1 -1-1zm-19 0a1 1 0 0 1 1-1h8a1 1 0 0 1 0 2h-8a1 1 0 0 1 -1-1zm-19 0a1 1 0 0 1 1-1h8a1 1 0 0 1 0 2h-8a1 1 0 0 1 -1-1zm-4 40v-28a3 3 0 0 1 3-3h50a3 3 0 0 1 3 3v28a3 3 0 0 1 -3 3h-50a3 3 0 0 1 -3-3zm31 15h-6v-10h6z"/><path d="m31.34 43.83a2.991 2.991 0 0 0 -.043-2.572l-2.123-4.311 12.454 4.982a1.012 1.012 0 0 0 .372.071 5.006 5.006 0 0 0 5-5v-16a5.006 5.006 0 0 0 -5-5 1.012 1.012 0 0 0 -.372.071l-19.821 7.929h-3.807a5 5 0 1 0 0 10h3.59l2.615 9.762a3.013 3.013 0 0 0 3.677 2.123l1.5-.408a2.969 2.969 0 0 0 1.958-1.647zm13.66-22.83v16a3 3 0 0 1 -2 2.815v-21.63a3 3 0 0 1 2 2.815zm-22 4.677 18-7.2v21.046l-18-7.2zm-7.118 5.451a3 3 0 0 1 2.118-5.128h3v6h-3a3.01 3.01 0 0 1 -2.118-.872zm12.986 12.417-1.5.408a1.007 1.007 0 0 1 -1.229-.712l-2.256-8.411 2.557 1.023c.055.133.1.265.163.4l2.9 5.893a1 1 0 0 1 .017.854.976.976 0 0 1 -.652.545z"/><path d="m49 28h6v2h-6z"/><path d="m48.598 22.5h6v2h-6z" transform="matrix(.866 -.5 .5 .866 -4.838 28.942)"/><path d="m50.598 31.5h2v6h-2z" transform="matrix(.5 -.866 .866 .5 -4.078 61.936)"/></g></svg>