<svg id="Layer_5" enable-background="new 0 0 64 64" height="512" viewBox="0 0 64 64" width="512" xmlns="http://www.w3.org/2000/svg"><path d="m10 32v6 6h6v-6h32v6h6v-6-6z" fill="#aab2bd"/><path d="m10 38v6h-4c-2.21 0-4-1.79-4-4v-8h8z" fill="#969faa"/><path d="m62 32v8c0 2.21-1.79 4-4 4h-4v-6-6z" fill="#969faa"/><path d="m62 32h-8-44-8v-24c0-2.21 1.79-4 4-4h8v18c0 1.1.9 2 2 2h8 16 8c1.1 0 2-.9 2-2v-18h8c2.21 0 4 1.79 4 4z" fill="#ccd1d9"/><path d="m48 2h-32c-1.1 0-2 .9-2 2v18c0 1.1.9 2 2 2h32c1.1 0 2-.9 2-2v-18c0-1.1-.9-2-2-2z" fill="#e6e9ed"/><path d="m16 38v6 2 16h24v-8h8v-8-2-6z" fill="#ffeaa7"/><path d="m48 54-8 8v-8z" fill="#e6e9ed"/><path d="m20 50h16v8h-16z" fill="#ff826e"/><path d="m6 16h4v4h-4z" fill="#69d6f4"/><path d="m6 8h4v4h-4z" fill="#69d6f4"/><path d="m40 22v2h-16v-2c0-1.1.9-2 2-2h12c1.1 0 2 .9 2 2z" fill="#fcd770"/><path d="m58 3h-7.184c-.414-1.161-1.514-2-2.816-2h-32c-1.302 0-2.402.839-2.816 2h-7.184c-2.757 0-5 2.243-5 5v32c0 2.757 2.243 5 5 5h9v18h25.414l8.586-8.586v-9.414h9c2.757 0 5-2.243 5-5v-32c0-2.757-2.243-5-5-5zm-43 1c0-.552.448-1 1-1h32c.552 0 1 .448 1 1v18c0 .552-.448 1-1 1h-7v-1c0-1.654-1.346-3-3-3h-12c-1.654 0-3 1.346-3 3v1h-7c-.552 0-1-.448-1-1zm24 19h-14v-1c0-.552.448-1 1-1h12c.552 0 1 .448 1 1zm-33-18h7v17c0 1.654 1.346 3 3 3h32c1.654 0 3-1.346 3-3v-17h7c1.654 0 3 1.346 3 3v23h-58v-23c0-1.654 1.346-3 3-3zm47 32h-42v-4h42zm-50 3v-7h6v10h-3c-1.654 0-3-1.346-3-3zm8 3v-4h4v4zm6-4h30v14h-8v8h-22zm28.586 16-4.586 4.586v-4.586zm3.414-16h4v4h-4zm9 4h-3v-10h6v7c0 1.654-1.346 3-3 3z"/><path d="m11 7h-6v6h6zm-2 4h-2v-2h2z"/><path d="m11 15h-6v6h6zm-2 4h-2v-2h2z"/><path d="m19 41h2v2h-2z"/><path d="m23 41h22v2h-22z"/><path d="m19 45h26v2h-26z"/><path d="m19 49v10h18v-10zm16 8h-14v-6h14z"/><path d="m43 49h2v2h-2z"/><path d="m39 49h2v2h-2z"/><path d="m45 5h2v2h-2z"/><path d="m41 5h2v2h-2z"/><path d="m37 5h2v2h-2z"/><path d="m57 27h2v2h-2z"/><path d="m57 23h2v2h-2z"/><path d="m57 19h2v2h-2z"/></svg>