<svg height="480pt" viewBox="0 0 480 480.00061" width="480pt" xmlns="http://www.w3.org/2000/svg"><path d="m24 168h432c8.835938 0 16 7.164062 16 16v272c0 8.835938-7.164062 16-16 16h-432c-8.835938 0-16-7.164062-16-16v-272c0-8.835938 7.164062-16 16-16zm0 0" fill="#d9ccbc"/><path d="m472 184v272c-.027344 8.828125-7.175781 15.972656-16 16h-432c-8.824219-.027344-15.972656-7.171875-16-16h424c8.824219-.027344 15.972656-7.171875 16-16v-272h8c8.824219.027344 15.972656 7.175781 16 16zm0 0" fill="#c0ab91"/><path d="m448 24c0 8.835938-7.164062 16-16 16s-16-7.164062-16-16 7.164062-16 16-16 16 7.164062 16 16zm0 0" fill="#ff9478"/><path d="m440 304c0 57.4375-46.5625 104-104 104s-104-46.5625-104-104 46.5625-104 104-104 104 46.5625 104 104zm0 0" fill="#ff9478"/><path d="m120 168h-64c0-17.671875 14.328125-32 32-32s32 14.328125 32 32zm0 0" fill="#ff9478"/><path d="m448 24c-.035156 7.515625-5.292969 13.992188-12.640625 15.570312-7.347656 1.578126-14.804687-2.171874-17.917969-9.007812 2.050782.964844 4.292969 1.457031 6.558594 1.4375 8.824219-.027344 15.972656-7.171875 16-16 .019531-2.265625-.472656-4.507812-1.441406-6.558594 5.734375 2.578125 9.429687 8.273438 9.441406 14.558594zm0 0" fill="#ff6243"/><path d="m440 304c.039062 44.140625-27.816406 83.488281-69.460938 98.128906-41.640624 14.636719-87.988281 1.367188-115.578124-33.089844 41.332031 33.269532 101.089843 30.046876 138.609374-7.46875 37.515626-37.519531 40.738282-97.277343 7.46875-138.609374 24.664063 19.660156 39.011719 49.5 38.960938 81.039062zm0 0" fill="#ff6243"/><path d="m400 304c0 35.347656-28.652344 64-64 64s-64-28.652344-64-64c0-35.34375 28.652344-64 64-64s64 28.65625 64 64zm0 0" fill="#00d7df"/><path d="m400 304c.035156 27.976562-18.125 52.722656-44.820312 61.085938-26.699219 8.359374-55.730469-1.609376-71.660157-24.605469 10.679688 7.515625 23.421875 11.542969 36.480469 11.519531 35.328125-.046875 63.953125-28.671875 64-64 .019531-13.058594-4.003906-25.800781-11.519531-36.480469 17.234375 11.914063 27.519531 31.53125 27.519531 52.480469zm0 0" fill="#00b6bd"/><g fill="#9bc9ff"><path d="m40 376h112v64h-112zm0 0"/><path d="m40 200h112v64h-112zm0 0"/><path d="m152 376v64h-112v-16h96v-48zm0 0"/><path d="m152 200v64h-112v-16h96v-48zm0 0"/></g><path d="m456 160h-328.800781c-1.96875-9.363281-7.238281-17.710938-14.847657-23.511719l300.722657-97.902343c7.132812 9.207031 19.863281 11.9375 30.148437 6.46875s15.136719-17.550782 11.488282-28.613282c-3.644532-11.066406-14.726563-17.894531-26.246094-16.179687-11.523438 1.714843-20.136719 11.476562-20.402344 23.121093l-321.894531 104.800782c-18.261719.820312-33.644531 13.917968-37.367188 31.816406h-24.800781c-13.253906 0-24 10.746094-24 24v272c0 13.253906 10.746094 24 24 24h432c13.253906 0 24-10.746094 24-24v-272c0-13.253906-10.746094-24-24-24zm-24-144c4.417969 0 8 3.582031 8 8s-3.582031 8-8 8-8-3.582031-8-8 3.582031-8 8-8zm-344 128c10.132812.042969 19.148438 6.445312 22.527344 16h-45.054688c3.378906-9.554688 12.394532-15.957031 22.527344-16zm376 312c0 4.417969-3.582031 8-8 8h-432c-4.417969 0-8-3.582031-8-8v-272c0-4.417969 3.582031-8 8-8h432c4.417969 0 8 3.582031 8 8zm0 0"/><path d="m336 192c-61.855469 0-112 50.144531-112 112s50.144531 112 112 112 112-50.144531 112-112c-.066406-61.828125-50.171875-111.933594-112-112zm0 208c-53.019531 0-96-42.980469-96-96s42.980469-96 96-96 96 42.980469 96 96c-.058594 52.996094-43.003906 95.941406-96 96zm0 0"/><path d="m336 232c-39.765625 0-72 32.234375-72 72s32.234375 72 72 72 72-32.234375 72-72c-.046875-39.742188-32.253906-71.949219-72-72zm0 128c-30.925781 0-56-25.070312-56-56 0-30.925781 25.074219-56 56-56 30.929688 0 56 25.074219 56 56-.035156 30.914062-25.085938 55.964844-56 56zm0 0"/><path d="m232 432h208v16h-208zm0 0"/><path d="m152 192h-112c-4.417969 0-8 3.582031-8 8v64c0 4.417969 3.582031 8 8 8h112c4.417969 0 8-3.582031 8-8v-64c0-4.417969-3.582031-8-8-8zm-8 64h-96v-48h96zm0 0"/><path d="m152 368h-112c-4.417969 0-8 3.582031-8 8v64c0 4.417969 3.582031 8 8 8h112c4.417969 0 8-3.582031 8-8v-64c0-4.417969-3.582031-8-8-8zm-8 64h-96v-48h96zm0 0"/><path d="m432 192h16v16h-16zm0 0"/><path d="m328 296h16v16h-16zm0 0"/><path d="m360 296h16v16h-16zm0 0"/><path d="m296 296h16v16h-16zm0 0"/><path d="m328 264h16v16h-16zm0 0"/><path d="m328 328h16v16h-16zm0 0"/><path d="m32 296h128v16h-128zm0 0"/><path d="m32 328h128v16h-128zm0 0"/></svg>