<svg height="512pt" viewBox="-2 0 512 512.00099" width="512pt" xmlns="http://www.w3.org/2000/svg"><path d="m295.582031 112.589844c-1.671875-22.667969-19.765625-40.519532-41.855469-40.519532-22.085937 0-40.179687 17.851563-41.851562 40.519532zm0 0" fill="#8cc9f9"/><path d="m268.601562 74.917969c-4.621093-1.832031-9.632812-2.847657-14.875-2.847657-22.085937 0-40.179687 17.851563-41.851562 40.519532h29.75c1.273438-17.289063 12.109375-31.769532 26.976562-37.671875zm0 0" fill="#60b8fe"/><path d="m41.152344 471.066406v20.082032c0 7.515624 6.148437 13.664062 13.664062 13.664062h397.824219c7.515625 0 13.664063-6.148438 13.664063-13.664062v-20.082032zm0 0" fill="#8cc9f9"/><path d="m70.902344 491.148438v-20.082032h-29.75v20.082032c0 7.515624 6.148437 13.664062 13.664062 13.664062h29.75c-7.515625 0-13.664062-6.148438-13.664062-13.664062zm0 0" fill="#23a8fe"/><path d="m40.203125 110.789062c-18.269531 0-33.214844 14.945313-33.214844 33.214844v296.847656c0 18.269532 14.945313 33.214844 33.214844 33.214844h333.769531v-363.277344zm0 0" fill="#b1dbfc"/><path d="m36.738281 440.851562v-296.847656c0-18.269531 14.945313-33.214844 33.214844-33.214844h-29.75c-18.269531 0-33.214844 14.945313-33.214844 33.214844v296.847656c0 18.269532 14.945313 33.214844 33.214844 33.214844h29.75c-18.269531 0-33.214844-14.945312-33.214844-33.214844zm0 0" fill="#8cc9f9"/><path d="m360.574219 144.953125h-308.019531c-6.296876 0-11.402344 5.105469-11.402344 11.402344v272.144531c0 6.296875 5.105468 11.402344 11.402344 11.402344h308.019531c6.296875 0 11.398437-5.105469 11.398437-11.402344v-272.144531c0-6.296875-5.105468-11.402344-11.398437-11.402344zm0 0" fill="#60b8fe"/><path d="m70.902344 428.5v-272.144531c0-6.296875 5.105468-11.402344 11.402344-11.402344h-29.75c-6.296876 0-11.402344 5.105469-11.402344 11.402344v272.144531c0 6.296875 5.105468 11.402344 11.402344 11.402344h29.75c-6.296876 0-11.402344-5.105469-11.402344-11.402344zm0 0" fill="#23a8fe"/><path d="m41.152344 405.0625v23.4375c0 6.296875 5.105468 11.402344 11.402344 11.402344h308.019531c6.296875 0 11.398437-5.105469 11.398437-11.402344v-23.4375zm0 0" fill="#23a8fe"/><path d="m70.902344 428.5v-23.4375h-29.75v23.4375c0 6.296875 5.105468 11.402344 11.402344 11.402344h29.75c-6.296876 0-11.402344-5.105469-11.402344-11.402344zm0 0" fill="#0193fa"/><path d="m476.171875 110.789062h-104.199219v363.277344h104.199219c13.15625 0 23.917969-10.761718 23.917969-23.914062v-315.449219c0-13.152344-10.761719-23.914063-23.917969-23.914063zm0 0" fill="#ff8188"/><path d="m371.972656 110.789062h30v363.277344h-30zm0 0" fill="#ff656f"/><path d="m461.652344 170.574219c0 14.152343-11.46875 25.625-25.621094 25.625s-25.625-11.472657-25.625-25.625c0-14.148438 11.472656-25.621094 25.625-25.621094s25.621094 11.472656 25.621094 25.621094zm0 0" fill="#b1dbfc"/><path d="m461.652344 258.175781c0 14.152344-11.46875 25.625-25.621094 25.625s-25.625-11.472656-25.625-25.625c0-14.148437 11.472656-25.621093 25.625-25.621093s25.621094 11.472656 25.621094 25.621093zm0 0" fill="#b1dbfc"/><path d="m440.679688 170.574219c0-8.484375 4.128906-16.007813 10.484374-20.671875-4.238281-3.109375-9.46875-4.949219-15.132812-4.949219-14.152344 0-25.625 11.472656-25.625 25.621094 0 14.152343 11.472656 25.625 25.625 25.625 5.664062 0 10.894531-1.839844 15.132812-4.953125-6.355468-4.660156-10.484374-12.183594-10.484374-20.671875zm0 0" fill="#8cc9f9"/><path d="m440.679688 258.175781c0-8.484375 4.128906-16.007812 10.484374-20.671875-4.238281-3.109375-9.46875-4.949218-15.132812-4.949218-14.152344 0-25.625 11.472656-25.625 25.621093 0 14.152344 11.472656 25.625 25.625 25.625 5.664062 0 10.894531-1.839843 15.132812-4.953125-6.355468-4.660156-10.484374-12.179687-10.484374-20.671875zm0 0" fill="#8cc9f9"/><path d="m436.542969 203.386719c18.265625 0 33.125-14.859375 33.125-33.125 0-18.261719-14.859375-33.121094-33.125-33.121094-18.261719 0-33.121094 14.859375-33.121094 33.121094 0 18.265625 14.859375 33.125 33.121094 33.125zm0-51.246094c9.992187 0 18.125 8.128906 18.125 18.121094 0 9.992187-8.132813 18.125-18.125 18.125-9.992188 0-18.121094-8.132813-18.121094-18.125 0-9.992188 8.128906-18.121094 18.121094-18.121094zm0 0"/><path d="m469.667969 257.863281c0-18.265625-14.859375-33.121093-33.125-33.121093-18.261719 0-33.121094 14.855468-33.121094 33.121093s14.859375 33.121094 33.121094 33.121094c18.265625 0 33.125-14.855469 33.125-33.121094zm-33.125 18.125c-9.992188 0-18.121094-8.132812-18.121094-18.125 0-9.992187 8.128906-18.121093 18.121094-18.121093 9.992187 0 18.125 8.128906 18.125 18.121093 0 9.992188-8.132813 18.125-18.125 18.125zm0 0"/><path d="m407.734375 321.207031c-4.566406-.953125-8.960937 2.582031-8.960937 7.347657 0 4.101562 3.328124 7.5 7.5 7.5 4.25 0 7.5-3.503907 7.5-7.5 0-3.484376-2.503907-6.6875-6.039063-7.347657zm0 0"/><path d="m438.011719 321.207031c-4.582031-.9375-8.96875 2.597657-8.96875 7.347657 0 4.144531 3.378906 7.5 7.5 7.5 4.070312 0 7.5-3.304688 7.5-7.5 0-3.683594-2.691407-6.722657-6.03125-7.347657zm0 0"/><path d="m465.351562 321.207031c-3.382812.632813-6.039062 3.703125-6.039062 7.347657 0 4.035156 3.292969 7.5 7.511719 7.5 4.160156 0 7.5-3.414063 7.5-7.5-.003907-4.707032-4.355469-8.296876-8.972657-7.347657zm0 0"/><path d="m407.734375 353.464844c-5.144531-1.015625-9.839844 3.445312-8.820313 8.820312.757813 3.65625 3.898438 6.03125 7.359376 6.03125 4.214843 0 7.5-3.445312 7.5-7.5 0-3.367187-2.320313-6.574218-6.039063-7.351562zm0 0"/><path d="m436.542969 353.316406c-4.089844 0-7.5 3.332032-7.5 7.507813 0 6.53125 7.992187 10.109375 12.800781 5.300781 1.398438-1.398438 2.199219-3.332031 2.199219-5.300781 0-4.175781-3.410157-7.507813-7.5-7.507813zm0 0"/><path d="m465.351562 353.464844c-3.648437.765625-6.039062 3.894531-6.039062 7.351562 0 4.070313 3.296875 7.5 7.511719 7.5 4.171875 0 7.5-3.402344 7.5-7.5-.003907-4.675781-4.332031-8.28125-8.972657-7.351562zm0 0"/><path d="m407.734375 385.734375c-4.441406-.925781-8.960937 2.480469-8.960937 7.351563 0 4.101562 3.324218 7.5 7.5 7.5 4.1875 0 7.5-3.417969 7.5-7.5 0-3.3125-2.246094-6.5625-6.039063-7.351563zm0 0"/><path d="m438.011719 385.734375c-4.53125-.925781-8.96875 2.566406-8.96875 7.351563 0 4.070312 3.308593 7.5 7.5 7.5 4.109375 0 7.5-3.339844 7.5-7.5 0-3.746094-2.769531-6.742188-6.03125-7.351563zm0 0"/><path d="m465.351562 385.734375c-3.785156.785156-6.039062 4.046875-6.039062 7.351563 0 4.105468 3.339844 7.5 7.511719 7.5 4.222656 0 7.5-3.46875 7.5-7.5-.003907-4.824219-4.488281-8.277344-8.972657-7.351563zm0 0"/><path d="m407.734375 417.996094c-4.664063-.921875-8.960937 2.652344-8.960937 7.359375 0 4.1875 3.421874 7.5 7.5 7.5 4.191406 0 7.5-3.449219 7.5-7.5 0-3.296875-2.25-6.574219-6.039063-7.359375zm0 0"/><path d="m436.542969 417.855469c-4.816407 0-8.285157 4.457031-7.351563 8.960937.777344 3.695313 3.933594 6.039063 7.351563 6.039063 4.078125 0 7.5-3.324219 7.5-7.5 0-4.140625-3.363281-7.5-7.5-7.5zm0 0"/><path d="m465.351562 418.003906c-3.515624.660156-6.039062 3.847656-6.039062 7.351563 0 4.144531 3.402344 7.5 7.511719 7.5 4.179687 0 7.5-3.429688 7.5-7.5-.003907-4.671875-4.304688-8.285157-8.972657-7.351563zm0 0"/><path d="m300.269531 175.402344c-2.929687-2.925782-7.675781-2.925782-10.605469 0-2.929687 2.929687-2.929687 7.679687 0 10.609375l33.285157 33.28125c2.929687 2.929687 7.675781 2.929687 10.605469 0 2.929687-2.929688 2.929687-7.675781 0-10.605469zm0 0"/><path d="m261.886719 184.960938c-2.929688-2.925782-7.679688-2.925782-10.609375 0-2.929688 2.929687-2.929688 7.679687 0 10.609374l62.109375 62.109376c2.933593 2.929687 7.679687 2.929687 10.609375 0 2.925781-2.929688 2.925781-7.679688 0-10.605469zm0 0"/><path d="m476.6875 102.972656c-4.6875 0-169.476562 0-174.152344 0-3.007812-13.429687-11.523437-24.769531-22.945312-31.644531l43.140625-59.421875c2.433593-3.351562 1.6875-8.042969-1.660157-10.476562-3.355468-2.429688-8.042968-1.6875-10.476562 1.664062l-45.324219 62.429688c-7.304687-1.691407-14.746093-1.691407-22.054687 0l-45.324219-62.429688c-2.4375-3.351562-7.125-4.097656-10.476563-1.660156-3.351562 2.433594-4.097656 7.121094-1.664062 10.472656l43.140625 59.421875c-11.417969 6.875-19.9375 18.21875-22.941406 31.644531h-165.234375c-22.449219 0-40.714844 18.265625-40.714844 40.71875v296.847656c0 20.21875 14.820312 37.035157 34.164062 40.179688v10.117188c0 11.671874 9.496094 21.164062 21.167969 21.164062h181.21875c4.144531 0 7.5-3.355469 7.5-7.5 0-4.140625-3.355469-7.5-7.5-7.5h-181.21875c-3.402343 0-6.167969-2.765625-6.167969-6.164062v-9.582032h410.152344v9.582032c0 3.398437-2.765625 6.164062-6.164062 6.164062h-181.601563c-4.144531 0-7.5 3.359375-7.5 7.5 0 4.144531 3.355469 7.5 7.5 7.5h181.601563c11.671875 0 21.164062-9.492188 21.164062-21.164062v-9.582032h2.371094c17.320312 0 31.414062-14.09375 31.414062-31.414062v-140.226563c0-4.144531-3.355468-7.5-7.5-7.5-4.140624 0-7.5 3.355469-7.5 7.5v140.222657c0 9.050781-7.359374 16.417968-16.414062 16.417968-10.316406 0-86.371094 0-96.699219 0 0-1.917968 0-338.023437 0-348.28125h96.699219c.566406 0 1.125.03125 1.675781.085938 8.265625.84375 14.738281 7.84375 14.738281 16.332031v140.222656c0 4.144531 3.359376 7.5 7.5 7.5 4.144532 0 7.5-3.355469 7.5-7.5v-140.222656c0-17.324219-14.09375-31.417969-31.414062-31.417969zm-222.445312-23.71875c15.085937 0 28.1875 9.925782 32.753906 23.71875h-65.511719c4.570313-13.792968 17.667969-23.71875 32.757813-23.71875zm110.746093 348.933594c0 2.148438-1.75 3.898438-3.902343 3.898438h-308.019532c-2.148437 0-3.902344-1.75-3.902344-3.898438v-15.941406h315.824219zm0-30.941406h-315.824219v-241.207032c0-2.148437 1.75-3.898437 3.902344-3.898437h308.019532c2.152343 0 3.902343 1.75 3.902343 3.898437zm0-259.699219c-1.261719-.265625-2.566406-.410156-3.902343-.410156h-308.019532c-10.421875 0-18.902344 8.480469-18.902344 18.902343v272.144532c0 10.421875 8.480469 18.902344 18.902344 18.902344h308.019532c1.339843 0 2.640624-.144532 3.902343-.410157v19.574219h-323.324219c-16.371093 0-26.664062-12.457031-26.664062-25.714844v-296.847656c0-14.179688 11.535156-25.714844 25.714844-25.714844h324.273437zm0 0"/></svg>