<?xml version="1.0" encoding="iso-8859-1"?>
<!-- Generator: Adobe Illustrator 19.0.0, SVG Export Plug-In . SVG Version: 6.00 Build 0)  -->
<svg version="1.1" id="Layer_1" xmlns="http://www.w3.org/2000/svg" xmlns:xlink="http://www.w3.org/1999/xlink" x="0px" y="0px"
	 viewBox="0 0 512 512" style="enable-background:new 0 0 512 512;" xml:space="preserve">
<g>
	<g>
		<path d="M313.827,179.971V97.79c0-5.633-4.567-10.199-10.199-10.199h-95.255c-5.632,0-10.199,4.566-10.199,10.199v82.181
			c-65.169,5.212-116.604,59.906-116.604,126.394v195.436c0,5.633,4.567,10.199,10.199,10.199h328.464
			c5.632,0,10.199-4.566,10.199-10.199V306.365C430.431,239.877,378.997,185.183,313.827,179.971z M229.379,107.989v51.114
			c0,5.633,4.567,10.199,10.199,10.199c5.632,0,10.199-4.566,10.199-10.199v-51.114h12.448v14.983
			c0,5.633,4.567,10.199,10.199,10.199s10.199-4.566,10.199-10.199v-14.983h10.806v71.571h-74.857v-71.571H229.379z
			 M410.034,491.602L410.034,491.602H101.968V306.365c0-58.672,47.733-106.406,106.405-106.406h95.255
			c58.672,0,106.405,47.733,106.405,106.406V491.602z"/>
	</g>
</g>
<g>
	<g>
		<path d="M272.424,143.428c-5.632,0-10.199,4.566-10.199,10.199v5.475c0,5.633,4.567,10.199,10.199,10.199
			s10.199-4.566,10.199-10.199v-5.475C282.623,147.995,278.056,143.428,272.424,143.428z"/>
	</g>
</g>
<g>
	<g>
		<path d="M272.424,51.459c-5.632,0-10.199,4.566-10.199,10.199v5.475c0,5.633,4.566,10.199,10.199,10.199
			c5.632,0,10.199-4.566,10.199-10.199v-5.475C282.623,56.025,278.056,51.459,272.424,51.459z"/>
	</g>
</g>
<g>
	<g>
		<path d="M272.424,0c-5.632,0-10.199,4.566-10.199,10.199v20.802c0,5.633,4.566,10.199,10.199,10.199
			c5.632,0,10.199-4.566,10.199-10.199V10.199C282.623,4.566,278.056,0,272.424,0z"/>
	</g>
</g>
<g>
	<g>
		<path d="M239.577,0c-5.632,0-10.199,4.566-10.199,10.199v5.475c0,5.633,4.567,10.199,10.199,10.199s10.199-4.566,10.199-10.199
			v-5.475C249.776,4.566,245.209,0,239.577,0z"/>
	</g>
</g>
<g>
	<g>
		<path d="M239.577,36.132c-5.632,0-10.199,4.566-10.199,10.199v20.802c0,5.633,4.567,10.199,10.199,10.199
			s10.199-4.566,10.199-10.199V46.331C249.776,40.698,245.209,36.132,239.577,36.132z"/>
	</g>
</g>
<g>
	<g>
		<path d="M370.963,460.945H123.52c-5.632,0-10.199,4.566-10.199,10.199c0,5.633,4.567,10.199,10.199,10.199h247.443
			c5.632,0,10.199-4.566,10.199-10.199C381.162,465.511,376.595,460.945,370.963,460.945z"/>
	</g>
</g>
<g>
</g>
<g>
</g>
<g>
</g>
<g>
</g>
<g>
</g>
<g>
</g>
<g>
</g>
<g>
</g>
<g>
</g>
<g>
</g>
<g>
</g>
<g>
</g>
<g>
</g>
<g>
</g>
<g>
</g>
</svg>
