<?xml version="1.0" ?><svg id="Layer_1" style="enable-background:new 0 0 24 24;" version="1.1" viewBox="0 0 24 24" xml:space="preserve" xmlns="http://www.w3.org/2000/svg" xmlns:xlink="http://www.w3.org/1999/xlink"><style type="text/css">
	.st0{fill:#1E232D;}
</style><path class="st0" d="M17,10c-0.2,0-0.5,0-0.7,0l-2.8-7.9c4.2,0.6,7.5,3.8,8.3,7.9c0.4,0.2,1.6,1.3,2.2,2.2C24,4.4,17.5-0.3,11.3,0  L6.4,13.7C6.2,14.2,6.5,14.8,7,15l0,0c0.5,0.2,1.1-0.1,1.3-0.6L12,4l3.7,10.4c0.2,0.5,0.8,0.8,1.3,0.6c0.5-0.2,0.8-0.8,0.6-1.3  L17,12c0,0,0,0,0,0c2.8,0,5,2.2,5,5c0,2.8-2.2,5-5,5s-5-2.2-5-5c0-1.3,0.5-2.5,1.3-3.3l-0.7-2.1C11,12.9,10,14.8,10,17  c0,1.2,0.3,2.3,0.8,3.2C9.8,21.4,8.5,22,7,22c-2.8,0-5-2.2-5-5c0-1.9,1.1-3.5,2.7-4.4l0.9-2.5C2.4,10.8,0,13.6,0,17c0,3.9,3.1,7,7,7  c1.9,0,3.7-0.8,5-2.1c1.3,1.3,3,2.1,5,2.1c3.9,0,7-3.1,7-7C24,13.1,20.9,10,17,10z"/></svg>