<?xml version="1.0" ?><svg viewBox="0 0 64 64" xmlns="http://www.w3.org/2000/svg"><defs><style>.cls-1{fill:#5a5a5a;}.cls-2{fill:#b3b3b3;}.cls-3{fill:#f2f2f2;}.cls-4{fill:none;stroke:#000;stroke-linejoin:round;stroke-width:2px;}</style></defs><title/><g data-name="Layer 25" id="Layer_25"><circle class="cls-1" cx="32" cy="32" r="30"/><path class="cls-2" d="M45,42l6.82,6.82A26,26,0,0,0,15.18,12.18L45,42"/><path class="cls-2" d="M12.18,15.18A26,26,0,0,0,48.82,51.82Z"/><polygon class="cls-3" points="41 44 32 44 32 35 41 44"/><polygon class="cls-3" points="44 41 44 32 35.06 32 44 41"/><polygon class="cls-3" points="32 35 32 44 20 44 20 32 29 32 32 35"/><polygon class="cls-3" points="38 32 38 20 26 20 26 23 35 32 38 32"/><circle class="cls-4" cx="32" cy="32" r="30"/><path class="cls-4" d="M45,42l6.82,6.82A26,26,0,0,0,15.18,12.18L45,42"/><path class="cls-4" d="M12.18,15.18A26,26,0,0,0,48.82,51.82Z"/><polyline class="cls-4" points="32 35 32 44 20 44 20 32 29 32"/><line class="cls-4" x1="24" x2="24" y1="35" y2="37"/><line class="cls-4" x1="28" x2="28" y1="39" y2="41"/><line class="cls-4" x1="41" x2="32" y1="44" y2="44"/><polyline class="cls-4" points="35.06 32 44 32 44 41"/><line class="cls-4" x1="30" x2="30" y1="23" y2="25"/><line class="cls-4" x1="34" x2="34" y1="27" y2="29"/><polyline class="cls-4" points="26 23 26 20 38 20 38 32"/><line class="cls-4" x1="26" x2="26" y1="32" y2="29"/></g></svg>