<?xml version="1.0" ?><!DOCTYPE svg  PUBLIC '-//W3C//DTD SVG 1.1//EN'  'http://www.w3.org/Graphics/SVG/1.1/DTD/svg11.dtd'><svg enable-background="new 0 0 91 91" height="91px" id="Layer_1" version="1.1" viewBox="0 0 91 91" width="91px" xml:space="preserve" xmlns="http://www.w3.org/2000/svg" xmlns:xlink="http://www.w3.org/1999/xlink"><g><path d="M36.569,72.315h0.002h33.311h5.217v-3.4h-3.516V44.342c0-0.658-0.381-1.258-0.977-1.539   c-0.594-0.279-1.301-0.191-1.809,0.229L54.979,54.475l-0.055-10.143c-0.004-0.641-0.367-1.226-0.941-1.512s-1.26-0.225-1.773,0.158   L38.272,53.364V34.999c0-0.939-0.762-1.7-1.701-1.7h-8.348c-0.861,0-1.588,0.646-1.688,1.502l-3.998,34.114h-3.473v3.4h4.986   H36.569z M51.544,47.715l0.055,10.367c0.004,0.656,0.387,1.253,0.98,1.531c0.598,0.277,1.299,0.188,1.805-0.23l13.799-11.426   v20.958h-29.91v-11.31L51.544,47.715z M29.737,36.699h5.135v20.038c0,0.006-0.002,0.011-0.002,0.017v12.162h-8.908L29.737,36.699z" fill="#010101"/><path d="M31.282,31.977c0.184,0.063,0.369,0.092,0.551,0.092c0.707,0,1.367-0.444,1.609-1.149   c1.488-4.345,5.754-4.994,8.953-4.234c5.57,1.331,10.127,1.776,13.9-5.443c0.434-0.832,0.111-1.859-0.721-2.294   c-0.828-0.434-1.857-0.113-2.293,0.719c-2.471,4.729-4.477,5.054-10.098,3.71c-4.951-1.181-10.875,0.354-12.959,6.438   C29.921,30.705,30.394,31.672,31.282,31.977z" fill="#010101"/></g></svg>